<?xml version="1.0" encoding="UTF-8" standalone="no"?>
<svg width="1849px" height="2112px" viewBox="0 0 1849 2112" version="1.1" xmlns="http://www.w3.org/2000/svg" xmlns:xlink="http://www.w3.org/1999/xlink">
    <!-- Generator: Sketch 39.1 (31720) - http://www.bohemiancoding.com/sketch -->
    <title>shatel-logo-orig</title>
    <desc>Created with Sketch.</desc>
    <defs>
        <polygon id="path-1" points="923.833224 0.847666449 40.6486619 1606.46981 442.09619 1606.46981 923.833224 723.377631 1405.57026 1606.46981 1807.01779 1606.46981"></polygon>
        <mask id="mask-2" maskContentUnits="userSpaceOnUse" maskUnits="objectBoundingBox" x="-15" y="-15" width="1796.36912" height="1635.62214">
            <rect x="25.6486619" y="-14.1523336" width="1796.36912" height="1635.62214" fill="white"></rect>
            <use xlink:href="#path-1" fill="black"></use>
        </mask>
    </defs>
    <g id="Page-1" stroke="none" stroke-width="1" fill="none" fill-rule="evenodd">
        <g id="shatel-logo-orig" transform="translate(0.932482, 24.680701)">
            <polygon id="Shape" fill="#002A63" points="1681.37647 2012.95643 1681.37647 1717.3298 1607.46981 1717.3298 1607.46981 2086.86309 1681.37647 2086.86309 1847.66645 2086.86309 1847.66645 2012.95643"></polygon>
            <polygon id="Shape" fill="#002A63" points="997.739882 1717.3298 997.739882 1791.23646 1108.59987 1791.23646 1108.59987 2086.86309 1182.50653 2086.86309 1182.50653 1791.23646 1293.36651 1791.23646 1293.36651 1717.3298"></polygon>
            <polygon id="Shape" fill="#002A63" points="554.299935 1717.3298 554.299935 1865.14311 406.486619 1865.14311 406.486619 1717.3298 332.579961 1717.3298 332.579961 2086.86309 406.486619 2086.86309 406.486619 1939.04977 554.299935 1939.04977 554.299935 2086.86309 628.206593 2086.86309 628.206593 1717.3298"></polygon>
            <polygon id="Shape" fill="#002A63" points="868.403231 1717.3298 665.159921 2086.86309 757.543244 2086.86309 868.403231 1883.61978 979.263218 2086.86309 1071.64654 2086.86309"></polygon>
            <g id="Shape-Copy">
                <use fill="#002A63" fill-rule="evenodd" xlink:href="#path-1"></use>
                <use stroke="#002A63" mask="url(#mask-2)" stroke-width="30" xlink:href="#path-1"></use>
            </g>
            <path d="M184.766645,1865.14311 L110.859987,1865.14311 C90.535656,1865.14311 73.9066579,1848.51411 73.9066579,1828.18978 C73.9066579,1807.86545 90.535656,1791.23646 110.859987,1791.23646 L277.149967,1791.23646 L277.149967,1717.3298 L110.859987,1717.3298 C49.8869941,1717.3298 0,1767.21679 0,1828.18978 C0,1889.16278 49.8869941,1939.04977 110.859987,1939.04977 L184.766645,1939.04977 C205.090976,1939.04977 221.719974,1955.67877 221.719974,1976.0031 C221.719974,1996.32743 205.090976,2012.95643 184.766645,2012.95643 L18.4766645,2012.95643 L18.4766645,2086.86309 L184.766645,2086.86309 C245.739638,2086.86309 295.626632,2036.97609 295.626632,1976.0031 C295.626632,1915.03011 245.739638,1865.14311 184.766645,1865.14311 L184.766645,1865.14311 Z" id="Shape" fill="#002A63"></path>
            <polygon id="Shape" fill="#002A63" points="1570.51648 1791.23646 1570.51648 1717.3298 1404.2265 1717.3298 1330.31984 1717.3298 1330.31984 2086.86309 1404.2265 2086.86309 1570.51648 2086.86309 1570.51648 2012.95643 1404.2265 2012.95643 1404.2265 1939.04977 1552.03982 1939.04977 1552.03982 1865.14311 1404.2265 1865.14311 1404.2265 1791.23646"></polygon>
            <ellipse id="Oval" fill="#F26322" cx="868.403231" cy="2031.43309" rx="55.4299935" ry="55.4299935"></ellipse>
            <ellipse id="Oval-Copy" fill="#F26322" cx="923.833224" cy="1365.62649" rx="240.868517" ry="240.843322"></ellipse>
            <ellipse id="Oval" fill="#F26322" cx="923.833224" cy="1375.5115" rx="249.434971" ry="249.434971"></ellipse>
        </g>
    </g>
</svg>